<?xml version="1.0" encoding="utf-8"?>
<!-- Generator: Adobe Illustrator 23.0.3, SVG Export Plug-In . SVG Version: 6.00 Build 0)  -->
<svg version="1.1" id="Layer_1" xmlns="http://www.w3.org/2000/svg" xmlns:xlink="http://www.w3.org/1999/xlink" x="0px" y="0px"
	 width="200px" height="80px" viewBox="0 0 200 80" style="enable-background:new 0 0 200 80;" xml:space="preserve">
<style type="text/css">
	.st0{fill:#007CA9;}
	.st1{fill:#3B4049;}
</style>
<g>
	<g>
		<path class="st0" d="M48,2c-3.3,0-6.5,0.4-9.6,1.2c2.6-0.6,5.2-0.9,7.9-0.9c19.9,0,36,16.1,36,36c0,1.4-0.1,2.8-0.3,4.2
			c0.4-4.9-0.3-9.9-2.1-14.8C73.3,10,53.5,1.1,35.8,7.8C18.1,14.5,9.2,34.3,15.9,52c5.6,14.8,20.4,23.5,35.5,22
			c-1.6,0.2-3.3,0.4-5,0.4c-19.9,0-36-16.1-36-36c0-2.7,0.3-5.4,0.9-7.9C10.5,33.5,10,36.7,10,40c0,21,17,38,38,38c21,0,38-17,38-38
			C86,19,69,2,48,2z M37,58.1c0,1.5-1.2,2.7-2.7,2.7c-0.7,0-1.4-0.3-1.9-0.7c-1.5,0.8-2.9,1.4-4,1.4c-0.5,0-1-0.1-1.3-0.4
			c-0.4-0.4-1.6-1.6,2.6-8l-0.1,0l-0.4-0.3l0-0.1l0.1-0.2l0.1-0.3l0.1-0.5l0-0.4v-0.8l0-0.5l0.1-0.3l0.2-0.3l0.1-0.1l-0.2-0.4
			l-0.3-0.5L29.1,48c0,0-0.1-0.2-0.1-0.2c0-0.1,0-0.3,0-0.4c0-0.1,0-0.4,0-0.4c0,0-0.1-0.4-0.1-0.4l-0.2-0.2l-0.3-0.2l-0.3,0
			L28,46.1L27.7,46l-0.3-0.1l-0.4-0.1l-0.3-0.2l-0.2-0.2c0,0,0-0.2,0-0.2c0,0,0-0.3,0-0.3l-0.3-0.3l0-0.5c2.6,0.5,6.1,0.9,9.6,1.2
			c0.2-0.2,0.4-0.5,0.6-0.7c-3.6-0.3-6.9-0.6-9.7-1.1c-9.2-1.6-9.2-3.5-9.2-4.1c0-2.2,5.3-3.5,10.6-4.3l0.2,0.2l0.4,0.4l0.3,0.2
			l0.1,0.2c-8.2,1.1-10.4,2.6-10.4,3.3c0,0.6,1.7,1.9,8.3,3.1l0-0.1L26.8,42l-0.1-0.3l-0.2-0.3l-0.2-0.4l-0.1-0.4c0,0,0-0.3,0-0.3
			c0,0,0.1-0.3,0.1-0.3s0.2-0.2,0.2-0.3c0-0.1,0-0.3,0-0.3l-0.1-0.3l0.1-0.3l0.1-0.2l0.5-0.3l0.1,0c0,0,0.1,0,0.2,0
			c0.1,0,0.1-0.1,0.1-0.1l0.2-0.1l0.2,0c0,0,0.2,0,0.2,0c0.1,0,0.2,0,0.2,0l0.2-0.2l0.2-0.6l0.1-0.2l0.1-0.2l0.3-0.2l0.1-0.1
			l0.1-0.2l0.1-0.1l0.1-0.1l0.1-0.1l0.2-0.4l0-0.2l-0.2-0.6l-0.3-0.2l-0.4-0.4l-0.3-0.3l-0.1-0.3l0-0.1l-0.2-0.2l-0.1-0.3l-0.1-0.1
			l-0.1,0L27.7,33l-0.1,0l-0.1-0.1l-0.1-0.2l-0.1-0.1l-0.4-0.2l-0.2-0.2L26.5,32l0-0.2l0-0.6l0-0.2l-0.2-0.3l-0.3-0.5v-0.4l-0.1-0.4
			l-0.1-0.2l0-0.3l0.2-0.7l0.3-0.7l0.1-0.2l0.2-0.1c0,0,0.2-0.1,0.3-0.1c0,0,0.3-0.1,0.3-0.1s0-0.1,0.1-0.1c0,0,0.1-0.1,0.1-0.1
			s0.1,0,0.2,0c0.1,0,0.3-0.1,0.3-0.1l0.1-0.4l0-0.3l0-0.3l0.1-0.1l0.2-0.1l0.3,0.1l0.3,0.2l0.4,0.3l0.5,0.4l0.4,0.3l0.3,0.1
			l0.2,0.2l0.1,0.2l-0.1,0.2c0,0-0.2,0.2-0.3,0.2c-0.1,0-0.4,0.2-0.4,0.2l-0.3,0.3l-0.2,0.2l-0.1,0.3v0.3l0.1,0.3l0.2,0.2
			c0,0,0.2,0.1,0.3,0.1c0.1,0,0.3,0.1,0.3,0.1s0.3,0,0.4,0c0.1,0,0.5-0.1,0.5-0.1s0.4-0.1,0.4-0.1c0.1,0,0.4-0.1,0.4-0.1l0.4-0.1
			c0,0,0.3-0.1,0.3-0.1c0.1,0,0.2,0,0.2,0l0.3,0.1l0.5,0.1l0.5,0.2l0.3,0.1l0.3,0.1l0.6,0.1c0,0,0.4,0,0.5,0c0.1,0,0.2,0,0.2,0
			l0.1,0.1l0.1,0l0.1,0.1l0.3,0.2l0.3,0.2l0.5,0.1l0.3,0.2l0.6,0.2l0.5,0.2l0.2,0l0.5-0.1l0.4-0.2l0.5-0.2l0.4-0.1l0.3-0.1h0.3
			l0.3,0.1l0.2,0l0.2,0.1l0.2,0.2c0,0,0.1,0.1,0.2,0.1c0.1,0,0.2,0.1,0.2,0.1l0.3-0.1l0.3-0.2l0,0c1.1,1,2.3,2.1,3.5,3.2
			c0.2-0.2,0.4-0.4,0.6-0.6c-3.9-3.7-7.7-7-11-9.5c-0.5,0.5-1.2,0.8-1.9,0.8c-1.5,0-2.7-1.2-2.7-2.7c0-0.4,0.1-0.7,0.2-1.1
			c-3.4-2.1-4.9-2.2-5.2-1.9c-0.4,0.4-0.5,1.9,2.4,6.2l-0.2-0.1l-0.4-0.3L28,24.5l-0.3-0.1l-0.2,0.1l-0.2,0.1
			c-1.9-3.1-2.7-5.4-1.6-6.5c0.4-0.4,1.4-1.4,6.6,1.7c0.5-0.5,1.1-0.7,1.9-0.7c1.5,0,2.7,1.2,2.7,2.7c0,0.4-0.1,0.7-0.2,1.1
			c3.1,2.3,6.5,5.2,10,8.5l0.6-0.1L48,31c0,0,0.5-0.2,0.5-0.2c0,0,0.7-0.3,0.7-0.3l0.5-0.2c0,0,0.2-0.1,0.2-0.1
			c0-0.1,0.2-0.3,0.2-0.3l0.3-0.4l0.2-0.3l0.3-0.1l0.3-0.4l0.4-0.3l0.4-0.3c0,0,0.2-0.2,0.2-0.2c0,0,0.1-0.1,0.2-0.1
			c0.1,0,0.4-0.1,0.4-0.1s0.2-0.1,0.2-0.1c0,0,0.4-0.2,0.4-0.2l0.3-0.1c7.2-6.2,14.5-11.2,16.5-9.2c1.2,1.2,0.1,4.4-3.7,9.6
			l-0.2-0.2L66,27.2l-0.2-0.4c3.9-5.4,4-7.4,3.6-7.9c-0.4-0.4-2.6-0.1-8,3.7c-3.7,2.6-8.1,6.3-12.7,10.6c0.2,0.2,0.4,0.4,0.6,0.6
			c2.8-2.6,5.8-5.3,8.2-7.3c0.1,0,0.2,0,0.2,0s0.2-0.1,0.3-0.1c0.1,0,0.2,0,0.2,0s0.3-0.1,0.3-0.1c0.1,0,0.3-0.1,0.3-0.1
			s0.1,0,0.2,0c0.1,0,0.3,0.1,0.3,0.1c0.1,0,0.3,0.1,0.3,0.1l0.3,0.3l0.2,0.2l0.4,0.2l0.3,0.1l0.3,0.1l0.2,0.1l0.3,0l0.2,0l0.4-0.1
			l0.2-0.1l0.2-0.2l0.3-0.1l0.2,0.1l0.2,0.2l0.1,0.2c0,0,0.1,0.1,0.1,0.1c0.1,0,0.3,0.1,0.3,0.1l0.2,0l0.3-0.1c0,0,0.1-0.1,0.2-0.1
			c0.1,0,0.2,0,0.3,0c0.1,0,0.2,0.3,0.2,0.3l0.2,0.4l0.3,0.4l0.2,0.2l0.3,0.2c0,0,0.4,0.2,0.5,0.2c0.1,0,0.6,0.2,0.6,0.2l0.4,0.1
			l0.7,0l0.5,0l0.6,0.1l0.3,0.1l0.2,0.2l0,0.4l0,0.4L70,31l0,0.5l0,0.2l-0.1,0.2c0,0,0,0.1-0.1,0.2c-0.1,0.1-0.2,0.2-0.2,0.3
			c0,0-0.1,0.2-0.2,0.3c-0.1,0-0.4,0.2-0.4,0.2l-0.5,0l-0.3,0l-0.6,0.1c0,0-0.2,0-0.3,0C67.2,32.9,67,33,67,33l-0.5,0.2l-0.2,0.4
			l-0.2,0.3L66,34.1L66,34.3l0,0.4l-0.2,0.1l0,0.2c0,0,0,0.1,0,0.2c0,0-0.2,0.3-0.2,0.3s-0.1,0.1-0.1,0.2c0,0.1-0.1,0.4-0.1,0.4
			l0,0.2l-0.1,0.9l-0.1,0.9v0.9l0,0.3l0.1,0.2l0.1,0.2l-0.1,0l-0.5,0l-0.4,0.1l-0.2,0.1L64,40.3l-0.3,0.3l-0.2,0.3L63,41.1
			c0,0-0.1,0.2-0.2,0.3c-0.1,0-0.3,0.3-0.3,0.3L62.4,42L62.3,42l0,0.2l0.4-0.1c0,0,0.3-0.1,0.3-0.1c0.1,0,0.4,0,0.4,0l0.2,0.2
			l0.2,0.4L64,43c1.8-0.2,3.4-0.4,4.9-0.7c0.2,0,0.4-0.1,0.5-0.1c0-0.1,0-0.1,0-0.2c0-1.5,1.2-2.7,2.7-2.7c1.1,0,2.1,0.7,2.5,1.6
			c1.9-0.7,2.5-1.3,2.5-1.7c0-0.9-2.9-2.4-10.8-3.5c0-0.1,0-0.1,0-0.2c0-0.1,0.1-0.2,0.1-0.2s0.1-0.2,0.2-0.3c0-0.1,0-0.2,0-0.2
			l0-0.2l0,0c5.9,0.8,11.5,2.2,11.5,4.5c0,1.1-1.3,2-3.4,2.7c0,1.5-1.2,2.7-2.7,2.7c-1,0-2-0.6-2.4-1.5c-3.1,0.5-6.7,0.9-10.4,1.2
			c0.2,0.3,0.4,0.5,0.6,0.8c1.7-0.1,3.4-0.3,5-0.5l0.4,0.5L66,46l0.2,0.3l0.1,0.3l-0.1,0.2l-0.2,0c0,0-0.3,0-0.4-0.1
			c0,0-0.4,0-0.4,0c-0.1,0-0.3,0.2-0.3,0.2l-0.1,0.2L64.1,47l-0.3-0.2l-0.2,0.1l-0.4,0.3l-0.5,0.2l-0.3-0.1l-0.3,0L62,47l-0.5-0.7
			l-0.2-0.2l-0.3-0.2l-0.4-0.1l-0.1,0c5.7,6.8,10.1,13.5,8.2,15.4c-0.3,0.3-0.7,0.4-1.2,0.4c-3.2,0-9.9-5.2-14-8.6l0.1-0.2l0.1-0.2
			l0.1-0.4l0-0.3c9,7.6,13.4,9.3,14.2,8.6c0.4-0.4,0.1-2.6-3.7-8c-1.7-2.4-3.8-5-6.1-7.7c-3.3,0.2-6.7,0.3-9.7,0.3
			c-0.1,0-0.3,0-0.4,0c-3.5,0-6.9-0.1-10.1-0.3c-2.4,2.7-4.5,5.3-6.2,7.7c-3.9,5.4-4.2,7.6-3.7,8c0.4,0.4,1.6,0.2,3.9-1
			c-0.1-0.3-0.2-0.7-0.2-1.1c0-1.5,1.2-2.7,2.7-2.7c0.8,0,1.5,0.3,2,0.9c1.3-0.9,2.8-2.1,4.4-3.4c0,0,0.1,0,0.1,0l0.3,0l0.3,0.2
			l0.5,0.3c-1.5,1.2-3.2,2.6-5,3.9C36.9,57.5,37,57.8,37,58.1z M51,53l-0.5-0.1L50,52.8l-0.3,0L49.5,53l-0.2,0l-0.4,0l-0.2,0
			c0,0-0.4,0.1-0.5,0.1c-0.1,0-0.6,0.2-0.6,0.2l-0.1,0l-0.3,0l-0.6,0.2l-0.3,0.1l-0.3-0.1l-0.2-0.1l-0.3-0.2L45.1,53l-0.6-0.3
			L44,52.5l-0.3-0.1l-0.2,0l-0.4,0l-0.2,0.2l-0.2,0.1l-0.6-0.3l-0.3-0.2l-0.3-0.1c0,0-0.3-0.1-0.3-0.1c0-0.1-0.2-0.3-0.2-0.3
			c0,0-0.2-0.5-0.2-0.5l-0.1-0.2l-0.1,0l-0.3,0.1h-0.5l-0.2,0.1l-0.1,0.1l-0.2-0.2L39,51.3l0-0.2l-0.1-0.2l-0.1-0.1l-0.5,0.5l-0.2,0
			l-0.3-0.2l-0.2-0.1l-0.1,0.2l-0.1,0.4c0,0-0.1,0.1-0.1,0.1c0,0-0.3,0.2-0.3,0.2l-0.3,0l-0.2-0.1l-0.3-0.1L36,51.9L35.8,52
			l-0.3,0.2c0,0-0.1,0.1-0.2,0.1c-0.1,0-0.5,0.1-0.5,0.1l-1,0.1H33l-0.6,0c0-0.1,0.1-0.1,0.1-0.2c1.5-2,3.6-4.7,5.6-7.1
			c3,0.2,6.3,0.3,9.7,0.3c0.2,0,0.3,0,0.5,0c3.2,0,6.4-0.1,9.3-0.3c0.2,0.2,0.6,0.7,0.9,1l-0.3,0.2l-0.5,0.2l-0.5,0.1l-0.5,0l-0.4,0
			l-0.2,0.1L56.1,47L56,47.2l-0.1,0.3l-0.2,0.4l-0.1,0.2l-0.3,0.2l-0.3,0l-0.4,0l-0.2,0l-0.2,0.1l-0.2,0.2l0,0.3l0,0.2l-0.3,0.2
			l-0.2,0.1l-0.2-0.1L52.9,49l-0.1,0l-0.1,0.1l-0.2,0.1l-0.1,0.2l0,0.2l0,0.1l0.1,0.1l0.1,0.2l0.2,0.5l0.1,0.6l0,0.4l-0.1,0.4
			l-0.1,0.2l-0.2,0.4l-0.3,0.1l-0.3,0.1l-0.4,0.1L51.3,53L51,53z"/>
		<path class="st0" d="M46.3,36.8c0.6-0.6,1.1-1.1,1.7-1.6c0.6,0.6,1.2,1.2,1.9,1.9c2.2,2.2,4.3,4.4,6.2,6.6c0.4,0,0.7,0,1.1-0.1
			c-2.1-2.3-4.3-4.7-6.7-7.2c-0.8-0.8-1.6-1.6-2.5-2.4c-0.8,0.8-1.6,1.6-2.5,2.4c-2.4,2.4-4.7,4.8-6.8,7.1c0.4,0,0.7,0,1.1,0.1
			C41.8,41.4,44,39.1,46.3,36.8z"/>
	</g>
	<g>
		<path class="st1" d="M95.9,32.4c-0.2,0-0.3-0.1-0.3-0.3V17.1c0-0.2,0.1-0.3,0.3-0.3h2c0.2,0,0.3,0.1,0.3,0.3v6.3l5.4-6.4
			c0.1-0.1,0.2-0.2,0.4-0.2h2.5c0.3,0,0.4,0.2,0.2,0.4l-5.8,6.6l6.3,8.2c0.2,0.2,0,0.4-0.2,0.4h-2.5c-0.2,0-0.3,0-0.4-0.2l-4.8-6.5
			l-1.1,1.2V32c0,0.2-0.1,0.3-0.3,0.3H95.9z"/>
		<path class="st1" d="M111.5,32.4c-0.2,0-0.3-0.2-0.2-0.4l2.1-4.6l-4.9-10.3c-0.1-0.2,0-0.4,0.2-0.4h2.2c0.2,0,0.3,0.1,0.4,0.3
			l3.4,7.6l3.1-7.6c0.1-0.2,0.2-0.3,0.4-0.3h2.2c0.2,0,0.3,0.2,0.2,0.4l-6.5,14.9c-0.1,0.2-0.2,0.3-0.4,0.3H111.5z"/>
		<path class="st1" d="M123.1,32.4c-0.2,0-0.3-0.1-0.3-0.3V17.1c0-0.2,0.1-0.3,0.3-0.3h10.8c0.2,0,0.3,0.1,0.3,0.3V32
			c0,0.2-0.1,0.3-0.3,0.3h-2c-0.2,0-0.3-0.1-0.3-0.3V19.2h-6.2V32c0,0.2-0.1,0.3-0.3,0.3H123.1z"/>
		<path class="st1" d="M147.6,32.4c-0.2,0-0.3-0.1-0.3-0.3v-5c0-1.9,0.1-4.1,0.2-6l-0.1,0c-0.6,1.3-1.5,3-2.3,4.3l-4.1,6.8
			c-0.1,0.2-0.2,0.2-0.4,0.2h-2.2c-0.2,0-0.3-0.1-0.3-0.3V17.1c0-0.2,0.1-0.3,0.3-0.3h2c0.2,0,0.3,0.1,0.3,0.3v5.3
			c0,1.8-0.1,4.1-0.2,5.9l0.1,0c0.6-1.2,1.4-2.6,2.2-3.9L147,17c0.1-0.1,0.2-0.2,0.4-0.2h2.2c0.2,0,0.3,0.1,0.3,0.3V32
			c0,0.2-0.1,0.3-0.3,0.3H147.6z"/>
	</g>
	<g>
		<path class="st1" d="M106.2,35.8c0-0.4,0.2-0.6,0.6-0.6h4.3c0.4,0,0.6,0.2,0.6,0.6v18.8c0,0.4-0.2,0.6-0.6,0.6h-4.3
			c-0.4,0-0.6-0.2-0.6-0.6v-6.9h-4.9v6.9c0,0.4-0.2,0.6-0.6,0.6h-4.3c-0.4,0-0.6-0.2-0.6-0.6V35.8c0-0.4,0.2-0.6,0.6-0.6h4.3
			c0.4,0,0.6,0.2,0.6,0.6v6.8h4.9V35.8z"/>
		<path class="st1" d="M114.4,55.2c-0.4,0-0.6-0.3-0.4-0.6l6.3-18.8c0.1-0.3,0.3-0.4,0.6-0.4h5.1c0.3,0,0.5,0.1,0.6,0.4l6.3,18.8
			c0.1,0.4-0.1,0.6-0.4,0.6h-4.6c-0.3,0-0.6-0.1-0.6-0.5l-0.8-2.7h-6l-0.8,2.7c-0.1,0.3-0.3,0.5-0.6,0.5H114.4z M121.7,47.4h3.4
			l-1.7-6.2h-0.1L121.7,47.4z"/>
		<path class="st1" d="M136.9,55.2c-0.4,0-0.6-0.3-0.4-0.6l2.4-5.7l-6-13c-0.2-0.4,0-0.6,0.4-0.6h4.7c0.3,0,0.5,0.2,0.6,0.4l2.8,7.2
			l2.6-7.2c0.1-0.3,0.3-0.4,0.6-0.4h4.7c0.4,0,0.6,0.3,0.4,0.6l-7.6,18.8c-0.1,0.3-0.3,0.4-0.6,0.4H136.9z"/>
		<path class="st1" d="M152.8,55.2c-0.4,0-0.6-0.2-0.6-0.6V35.8c0-0.4,0.2-0.6,0.6-0.6h4.3c0.4,0,0.6,0.2,0.6,0.6v6.1l4-6.3
			c0.2-0.3,0.4-0.4,0.7-0.4h5.4c0.4,0,0.6,0.3,0.3,0.7l-6,7.9l6.9,10.7c0.3,0.4,0.1,0.7-0.4,0.7h-5.2c-0.3,0-0.5-0.1-0.7-0.4l-4-6.7
			l-1.1,1.3v5.2c0,0.4-0.2,0.6-0.6,0.6H152.8z"/>
		<path class="st1" d="M171,55.2c-0.4,0-0.6-0.3-0.4-0.6l6.3-18.8c0.1-0.3,0.3-0.4,0.6-0.4h5.1c0.3,0,0.5,0.1,0.6,0.4l6.3,18.8
			c0.1,0.4-0.1,0.6-0.4,0.6h-4.6c-0.3,0-0.6-0.1-0.6-0.5L183,52h-6l-0.8,2.7c-0.1,0.3-0.3,0.5-0.6,0.5H171z M178.3,47.4h3.4
			l-1.7-6.2H180L178.3,47.4z"/>
	</g>
	<g>
		<path class="st1" d="M115.3,65.1l-1.2-4.1c0-0.1,0-0.1,0.1-0.1h0.5c0.1,0,0.1,0,0.1,0.1l0.6,2c0.1,0.4,0.3,1.1,0.4,1.5h0
			c0.1-0.5,0.2-0.9,0.4-1.4l0.6-2c0-0.1,0.1-0.1,0.1-0.1h0.6c0.1,0,0.1,0,0.1,0.1l0.6,2c0.1,0.4,0.3,0.9,0.4,1.4h0
			c0.1-0.3,0.3-1.1,0.4-1.5l0.6-2c0-0.1,0.1-0.1,0.1-0.1h0.5c0.1,0,0.1,0,0.1,0.1l-1.2,4.1c0,0.1-0.1,0.1-0.1,0.1h-0.6
			c-0.1,0-0.1,0-0.1-0.1l-0.7-2.3c-0.1-0.4-0.2-0.8-0.3-1h0c-0.1,0.3-0.2,0.7-0.3,1l-0.7,2.3c0,0.1,0,0.1-0.1,0.1h-0.6
			C115.4,65.2,115.3,65.2,115.3,65.1z"/>
		<path class="st1" d="M121.8,65.1l-1.2-4.1c0-0.1,0-0.1,0.1-0.1h0.5c0.1,0,0.1,0,0.1,0.1l0.6,2c0.1,0.4,0.3,1.1,0.4,1.5h0
			c0.1-0.5,0.2-0.9,0.4-1.4l0.6-2c0-0.1,0.1-0.1,0.1-0.1h0.6c0.1,0,0.1,0,0.1,0.1l0.6,2c0.1,0.4,0.3,0.9,0.4,1.4h0
			c0.1-0.3,0.3-1.1,0.4-1.5l0.6-2c0-0.1,0.1-0.1,0.1-0.1h0.5c0.1,0,0.1,0,0.1,0.1l-1.2,4.1c0,0.1-0.1,0.1-0.1,0.1h-0.6
			c-0.1,0-0.1,0-0.1-0.1l-0.7-2.3c-0.1-0.4-0.2-0.8-0.3-1h0c-0.1,0.3-0.2,0.7-0.3,1l-0.7,2.3c0,0.1,0,0.1-0.1,0.1h-0.6
			C121.8,65.2,121.8,65.2,121.8,65.1z"/>
		<path class="st1" d="M128.2,65.1l-1.2-4.1c0-0.1,0-0.1,0.1-0.1h0.5c0.1,0,0.1,0,0.1,0.1l0.6,2c0.1,0.4,0.3,1.1,0.4,1.5h0
			c0.1-0.5,0.2-0.9,0.4-1.4l0.6-2c0-0.1,0.1-0.1,0.1-0.1h0.6c0.1,0,0.1,0,0.1,0.1l0.6,2c0.1,0.4,0.3,0.9,0.4,1.4h0
			c0.1-0.3,0.3-1.1,0.4-1.5l0.6-2c0-0.1,0.1-0.1,0.1-0.1h0.5c0.1,0,0.1,0,0.1,0.1l-1.2,4.1c0,0.1-0.1,0.1-0.1,0.1H131
			c-0.1,0-0.1,0-0.1-0.1l-0.7-2.3c-0.1-0.4-0.2-0.8-0.3-1h0c-0.1,0.3-0.2,0.7-0.3,1l-0.7,2.3c0,0.1,0,0.1-0.1,0.1h-0.6
			C128.2,65.2,128.2,65.2,128.2,65.1z"/>
		<path class="st1" d="M134.1,65.3c-0.3,0-0.5-0.2-0.5-0.5c0-0.3,0.2-0.5,0.5-0.5c0.3,0,0.5,0.2,0.5,0.5
			C134.6,65.1,134.4,65.3,134.1,65.3z"/>
		<path class="st1" d="M138.5,65.2c-0.1,0-0.1,0-0.1-0.1l-1.6-1.9l-0.4,0.4v1.5c0,0.1,0,0.1-0.1,0.1h-0.5c-0.1,0-0.1,0-0.1-0.1v-5.8
			c0-0.1,0-0.1,0.1-0.1h0.5c0.1,0,0.1,0,0.1,0.1v3.5l1.9-1.9c0,0,0.1,0,0.1,0h0.6c0.1,0,0.1,0.1,0,0.1l-1.8,1.7l1.9,2.3
			c0.1,0.1,0,0.1-0.1,0.1H138.5z"/>
		<path class="st1" d="M143.3,60.9c0.1,0,0.1,0,0.1,0.1v3.9c0,0.1,0,0.1-0.1,0.1c-0.5,0.2-1,0.3-1.6,0.3c-1.1,0-1.9-0.5-1.9-1.8V61
			c0-0.1,0-0.1,0.1-0.1h0.5c0.1,0,0.1,0,0.1,0.1v2.5c0,0.9,0.4,1.2,1.2,1.2c0.4,0,0.7-0.1,1-0.2V61c0-0.1,0-0.1,0.1-0.1H143.3z"/>
		<path class="st1" d="M146.3,60.8c1.1,0,1.9,0.5,1.9,1.8v0.9c0,1.1-0.8,1.8-1.8,1.8c-0.4,0-0.8-0.1-1-0.3v1.7c0,0.1,0,0.1-0.1,0.1
			h-0.5c-0.1,0-0.1,0-0.1-0.1v-5.5c0,0,0-0.1,0.1-0.1C145.2,60.9,145.8,60.8,146.3,60.8z M147.5,63.5v-0.9c0-0.9-0.4-1.2-1.2-1.2
			c-0.4,0-0.7,0.1-1,0.2v2.8c0.3,0.2,0.6,0.3,1,0.3C147.1,64.7,147.5,64.4,147.5,63.5z"/>
		<path class="st1" d="M149.6,60.1c-0.2,0-0.4-0.2-0.4-0.4c0-0.2,0.2-0.4,0.4-0.4c0.2,0,0.4,0.2,0.4,0.4
			C150,59.9,149.9,60.1,149.6,60.1z M149.4,65.2c-0.1,0-0.1,0-0.1-0.1V61c0-0.1,0-0.1,0.1-0.1h0.5c0.1,0,0.1,0,0.1,0.1v4.1
			c0,0.1,0,0.1-0.1,0.1H149.4z"/>
		<path class="st1" d="M151.3,65.2C151.2,65.2,151.2,65.2,151.3,65.2l-0.1-4c0,0,0-0.1,0.1-0.1c0.5-0.2,1-0.3,1.6-0.3
			c1.1,0,1.9,0.5,1.9,1.8v2.5c0,0.1,0,0.1-0.1,0.1h-0.5c-0.1,0-0.1,0-0.1-0.1v-2.5c0-0.9-0.4-1.2-1.2-1.2c-0.4,0-0.7,0.1-1,0.2v3.6
			c0,0.1,0,0.1-0.1,0.1H151.3z"/>
		<path class="st1" d="M157.5,60.8c1,0,1.7,0.5,1.7,1.6v2.5c0,0.1,0,0.1-0.1,0.1c-0.4,0.1-1,0.3-1.6,0.3c-0.9,0-1.8-0.4-1.8-1.4
			c0-0.9,0.7-1.3,1.8-1.3c0.3,0,0.7,0.1,1,0.1v-0.3c0-0.7-0.3-1-1-1c-0.5,0-0.9,0.1-1.2,0.3c-0.1,0-0.1,0-0.1,0l-0.2-0.4
			c0,0,0-0.1,0-0.1C156.3,61,156.9,60.8,157.5,60.8z M157.5,64.7c0.4,0,0.8-0.1,1-0.2v-1.3c-0.3-0.1-0.7-0.1-1-0.1
			c-0.8,0-1.1,0.3-1.1,0.7C156.4,64.4,156.8,64.7,157.5,64.7z"/>
		<path class="st1" d="M163.7,60.9c0.1,0,0.1,0,0.1,0.1v3.9c0,0.1,0,0.1-0.1,0.1c-0.5,0.2-1,0.3-1.6,0.3c-1.1,0-1.9-0.5-1.9-1.8V61
			c0-0.1,0-0.1,0.1-0.1h0.5c0.1,0,0.1,0,0.1,0.1v2.5c0,0.9,0.4,1.2,1.2,1.2c0.4,0,0.7-0.1,1-0.2V61c0-0.1,0-0.1,0.1-0.1H163.7z"/>
		<path class="st1" d="M167.9,65.2c-0.1,0-0.1,0-0.1-0.1l-1.6-1.9l-0.4,0.4v1.5c0,0.1,0,0.1-0.1,0.1h-0.5c-0.1,0-0.1,0-0.1-0.1v-5.8
			c0-0.1,0-0.1,0.1-0.1h0.5c0.1,0,0.1,0,0.1,0.1v3.5l1.9-1.9c0,0,0.1,0,0.1,0h0.6c0.1,0,0.1,0.1,0,0.1l-1.8,1.7l1.9,2.3
			c0.1,0.1,0,0.1-0.1,0.1H167.9z"/>
		<path class="st1" d="M170.8,60.8c1,0,1.7,0.5,1.7,1.6v2.5c0,0.1,0,0.1-0.1,0.1c-0.4,0.1-1,0.3-1.6,0.3c-0.9,0-1.8-0.4-1.8-1.4
			c0-0.9,0.7-1.3,1.8-1.3c0.3,0,0.7,0.1,1,0.1v-0.3c0-0.7-0.3-1-1-1c-0.5,0-0.9,0.1-1.2,0.3c-0.1,0-0.1,0-0.1,0l-0.2-0.4
			c0,0,0-0.1,0-0.1C169.7,61,170.2,60.8,170.8,60.8z M170.8,64.7c0.4,0,0.8-0.1,1-0.2v-1.3c-0.3-0.1-0.7-0.1-1-0.1
			c-0.8,0-1.1,0.3-1.1,0.7C169.7,64.4,170.2,64.7,170.8,64.7z"/>
		<path class="st1" d="M174,65.3c-0.3,0-0.5-0.2-0.5-0.5c0-0.3,0.2-0.5,0.5-0.5c0.3,0,0.5,0.2,0.5,0.5
			C174.5,65.1,174.3,65.3,174,65.3z"/>
		<path class="st1" d="M177.2,65.3c-1.1,0-1.8-0.7-1.8-1.6v-1.3c0-1,0.7-1.6,1.8-1.6c0.5,0,0.9,0.1,1.4,0.4c0.1,0,0.1,0.1,0,0.1
			l-0.2,0.3c0,0-0.1,0.1-0.1,0c-0.3-0.2-0.7-0.3-1-0.3c-0.7,0-1.1,0.4-1.1,1v1.3c0,0.6,0.4,1,1.1,1c0.4,0,0.8-0.1,1.1-0.4
			c0.1,0,0.1,0,0.1,0l0.2,0.3c0,0.1,0,0.1,0,0.1C178.3,65.1,177.8,65.3,177.2,65.3z"/>
		<path class="st1" d="M181.3,65.3c-1.1,0-1.8-0.7-1.8-1.6v-1.2c0-1,0.7-1.7,1.8-1.7c1.1,0,1.8,0.7,1.8,1.7v1.2
			C183.1,64.7,182.4,65.3,181.3,65.3z M181.3,64.7c0.8,0,1.2-0.4,1.2-1v-1.2c0-0.6-0.4-1-1.2-1c-0.7,0-1.1,0.4-1.1,1v1.2
			C180.1,64.3,180.5,64.7,181.3,64.7z"/>
		<path class="st1" d="M188.2,60.8c1,0,1.7,0.6,1.7,1.7v2.6c0,0.1,0,0.1-0.1,0.1h-0.5c-0.1,0-0.1,0-0.1-0.1v-2.6
			c0-0.7-0.3-1.1-1.1-1.1c-0.4,0-0.7,0.1-0.9,0.3c0.1,0.2,0.2,0.5,0.2,0.8v2.6c0,0.1,0,0.1-0.1,0.1h-0.5c-0.1,0-0.1,0-0.1-0.1v-2.6
			c0-0.7-0.3-1.1-1-1.1c-0.3,0-0.6,0.1-0.8,0.2v3.6c0,0.1,0,0.1-0.1,0.1h-0.5c-0.1,0-0.1,0-0.1-0.1v-3.9c0,0,0-0.1,0.1-0.1
			c0.4-0.2,0.9-0.3,1.4-0.3c0.5,0,0.9,0.2,1.2,0.4C187.3,60.9,187.7,60.8,188.2,60.8z"/>
	</g>
</g>
</svg>
