<svg width="16" height="16" viewBox="0 0 16 16" fill="none" xmlns="http://www.w3.org/2000/svg">
<path fill-rule="evenodd" clip-rule="evenodd" d="M14.1462 0.440476C14.5368 0.0499519 15.1699 0.0499519 15.5605 0.440476C15.951 0.831 15.951 1.46417 15.5605 1.85469L9.41511 8.00004L15.5605 14.1454C15.951 14.5359 15.951 15.1691 15.5605 15.5596C15.1699 15.9501 14.5368 15.9501 14.1462 15.5596L8.0009 9.41426L1.85554 15.5596C1.46502 15.9501 0.831855 15.9501 0.44133 15.5596C0.0508065 15.1691 0.0508065 14.5359 0.44133 14.1454L6.58668 8.00004L0.441332 1.85469C0.0508078 1.46417 0.0508078 0.831 0.441332 0.440476C0.831856 0.0499519 1.46502 0.0499519 1.85555 0.440476L8.0009 6.58583L14.1462 0.440476Z" fill="#ffd145"/>
</svg>
