<svg xmlns="http://www.w3.org/2000/svg" fill="white" xml:space="preserve" style="enable-background:new 0 0 949 822.5" viewBox="0 0 949 822.5"><path d="M595.496 9.647v76.9c0 5.8 3.8 9.6 9.6 9.6h86.5l-96.1-86.5zM313.796 344.247l-1.9-4.8 1.9-1v-41.3l-16.3 6.7-7.7-17.3 24-9.6v-41.3l-38.5 14.4-7.7-17.3 46.2-19.2v-41.3l-60.6 25-7.7-17.3 68.3-27.9v-41.3l-82.7 34.6-7.7-17.3 90.4-37.5v-43.4l-123.1 51c-9.6 3.8-14.4 15.4-10.6 25l133.7 321.1v-100zM329.196 480.747l13.5 32.7c3.8 9.6 15.4 14.4 25 10.6l104.8-43.3h-143.3z"/><path d="M486.896 451.947c0-17.3 2.9-32.7 8.7-48.1h-124v-19.2h131.7c7.7-14.4 18.3-27.9 29.8-38.5h-161.6v-19.2h187.5c21.2-12.5 45.2-19.2 72.1-19.2 24 0 47.1 5.8 67.3 16.3v-208.7h-93.3c-16.3 0-31.7-12.5-31.7-28.8V.047h-218.2c-10.6 0-22.1 8.7-22.1 19.2v423c0 10.6 11.5 19.2 22.1 19.2h131.7v-9.5zm-115.4-413.5h182.7v19.2h-182.7v-19.2zm0 57.7h182.7v19.2h-182.7v-19.2zm0 57.7h288.4v19.2h-288.4v-19.2zm0 57.7h288.4v19.2h-288.4v-19.2zm0 57.7h288.4v19.2h-288.4v-19.2z"/><path d="M631.096 326.947c-69.2 0-125 55.8-125 125s55.8 125 125 125 125-55.8 125-125-55.8-125-125-125zm-20.2 194.2-68.3-68.3 13.5-13.5 54.8 54.8 95.2-95.2 13.5 13.5-108.7 108.7zM0 354.8l92.4-8.4 6.5 71.7-92.4 8.4L5 410l78.5-7.1-3.5-38.6-78.5 7.1L0 354.8zM74 527.8c-11 4-20.5 4.2-28.6.6-8.1-3.5-13.8-10.2-17.4-20-2.2-6-2.8-11.9-1.8-17.6 1-5.7 3.6-10.8 7.7-15.4 4.2-4.5 9.9-8.1 17.2-10.8 11-4 20.5-4.2 28.4-.7 8 3.5 13.7 10.2 17.2 20 2.2 6.1 2.8 12 1.9 17.7-.9 5.7-3.5 10.8-7.6 15.3-3.9 4.7-9.7 8.3-17 10.9zm-17.1-47.3c-7 2.5-12 5.7-14.9 9.6-2.9 3.9-3.4 8.6-1.4 14.1s5.3 8.8 10.1 9.9c4.7 1.1 10.6.5 17.6-2.1 7-2.5 11.9-5.7 14.8-9.6 2.8-3.9 3.3-8.6 1.3-14.1-2-5.5-5.3-8.9-10-10-4.7-1.1-10.5-.3-17.5 2.2zM130.2 557.5l-27.8 18.7c-1.3.9-3.1 2-5.5 3.4s-4.6 2.7-6.8 3.9c-2.1 1.2-3.7 2.1-4.6 2.6l63.2-1.1 11 16.4-58.4 39.4-8.8-13 27.5-18.5c1.7-1.1 3.6-2.3 5.8-3.7s4.4-2.6 6.4-3.8c2-1.2 3.6-2.1 4.7-2.7L74 600.2l-11-16.4 58.4-39.4 8.8 13.1zM156.4 700c-7.4-6.9-11.2-14.4-11.5-22.6-.3-8.2 3.8-16.9 12.3-26.1 5.9-6.3 11.8-10.5 17.6-12.5 5.8-2 11.5-2.2 17-.6s10.6 4.7 15.5 9.2c3.2 3 5.7 5.9 7.7 9 2 3 3.4 5.8 4.4 8.4l-12.3 6.1c-1.3-2.7-2.7-5.2-4.2-7.5-1.5-2.4-3.1-4.4-4.9-6-8.4-7.8-17.8-6-28.4 5.3-5.1 5.5-7.9 10.7-8.4 15.4-.5 4.8 1.3 9 5.3 12.7 2.9 2.7 5.7 4.7 8.6 6.1 2.9 1.4 5.9 2.4 9 3l-9.7 10.4c-3.1-.6-6-1.7-8.8-3.3-2.9-1.6-5.9-3.9-9.2-7zM283.7 703.1l15.5 9.2-42 14.4 8.1 47.4-16.1-9.6-7.5-46-18.2 30.7-14.1-8.4 36-60.6 14.1 8.4-17.4 29.4 41.6-14.9zM353.1 730.6c8.7 2.8 14.7 6.7 18 12 3.3 5.2 3.7 11.8 1.2 19.7L358 807.4l-11-3.5-.1-10.3-.5-.2c-4 2.7-7.9 4.4-11.7 5.1-3.8.7-8.4.1-13.9-1.6-6-1.9-10.5-5.2-13.4-9.8-2.9-4.6-3.2-10.5-1-17.6 2.2-6.9 6.4-11.3 12.6-13.2s14.5-1.4 25 1.5l11.8 3.3 1.1-3.3c1.4-4.3 1.3-7.7-.2-10.2-1.5-2.5-4.1-4.3-7.8-5.5-3.4-1.1-6.8-1.6-10.2-1.7-3.4 0-6.9.2-10.4.6l-1.5-12.5c3.9-.7 8.1-.9 12.7-.6 4.3.4 8.9 1.2 13.6 2.7zm-.7 40.2-8.3-2.3c-6.9-1.9-12.1-2.3-15.4-1-3.3 1.3-5.5 3.7-6.7 7.2-1 3.2-.8 5.8.6 7.8s3.7 3.4 6.7 4.4c4.5 1.4 8.8 1.4 12.8-.2 4-1.6 6.8-5 8.4-10.1l1.9-5.8zM429.7 748.7l-2.2 33.5c-.1 1.6-.3 3.7-.7 6.4s-.7 5.3-1 7.7c-.3 2.5-.6 4.2-.7 5.2l37.9-50.6 19.7 1.3-4.7 70.3-15.7-1.1 2.2-33.1c.1-2 .4-4.3.7-6.9.3-2.6.6-5 1-7.4.3-2.3.6-4.1.8-5.4l-38 50.6-19.7-1.3 4.7-70.3 15.7 1.1zm49.8-26.7c-.7 4.4-2.2 8.1-4.4 11.2-2.2 3.1-5.4 5.4-9.5 6.9s-9.6 2-16.3 1.5c-6.9-.5-12.3-1.7-16-3.6-3.8-1.9-6.4-4.6-7.9-8-1.5-3.4-2.3-7.3-2.3-11.8l14.8 1c0 4.8 1 8 2.9 9.7 1.9 1.7 5.1 2.7 9.6 3 3.8.3 6.9-.4 9.4-1.9 2.4-1.5 4-4.5 4.8-9l14.9 1zM638.9 755.4c3.5 11.2 3.4 20.7-.5 28.6-3.9 7.9-10.7 13.4-20.7 16.6-6.1 1.9-12 2.3-17.7 1.1-5.7-1.2-10.7-4-15.1-8.3-4.4-4.3-7.7-10.2-10.1-17.7-3.5-11.2-3.4-20.6.5-28.4 3.8-7.8 10.7-13.3 20.6-16.4 6.2-2 12.1-2.4 17.8-1.2 5.6 1.2 10.6 3.9 15 8.2 4.4 4.2 7.8 10.1 10.2 17.5zm-48 15.2c2.3 7.1 5.3 12.2 9 15.3 3.8 3.1 8.4 3.7 14.1 2 5.5-1.8 9-5 10.3-9.7 1.3-4.7.9-10.6-1.4-17.7s-5.3-12.1-9-15.1c-3.8-3-8.5-3.6-14.1-1.8s-9.1 5-10.3 9.6c-1.3 4.5-.8 10.3 1.4 17.4zM682.7 659.5l14.9 23.3c10.4-5.4 19.9-7.1 28.7-5.2 8.8 1.9 16 7.1 21.5 15.8 5.5 8.5 7.3 17.2 5.5 26-1.8 8.8-7.5 16.8-17 24.1l16.4 25.6-13 8.3-16.4-25.7c-10.3 5.3-19.9 7-28.8 5.1-8.9-1.9-16.1-7.1-21.6-15.7-5.5-8.7-7.4-17.4-5.6-26.1 1.8-8.7 7.7-16.7 17.6-24.1L670 667.6l12.7-8.1zm8.8 42.2c-5.1 4.2-8 9-8.7 14.3-.7 5.3.7 10.7 4.2 16.2 3.5 5.6 7.8 9.2 12.9 10.8 5.1 1.7 10.6 1 16.6-2l-25-39.3zm13-8 24.9 39c5.1-4.2 8-8.9 8.6-14.1.6-5.2-.9-10.6-4.4-16.1-3.5-5.5-7.8-9-12.8-10.6-5.1-1.6-10.5-1-16.3 1.8zM770.1 620.1c6.4-6.9 13.6-10.5 21.5-10.7 7.9-.2 15.5 3.1 22.9 10l6.1 5.7-31.7 34.1c4.8 4.2 9.7 6.3 14.5 6.2 4.9-.1 9.3-2.3 13.4-6.7 3.1-3.3 5.5-6.6 7.3-9.9 1.8-3.3 3.4-6.9 4.7-10.9l9.6 8.9c-1.2 3.7-2.7 7.1-4.7 10.4-2 3.3-4.7 6.8-8.3 10.6-4.7 5.1-9.8 8.7-15.4 10.7-5.5 2.1-11.3 2.4-17.2 1-5.9-1.4-11.9-4.9-17.8-10.4-8.8-8.2-13.5-16.6-14.1-25.3-.5-8.6 2.6-16.6 9.2-23.7zm8.9 8.2c-3 3.2-4.4 6.8-4.2 10.7.2 3.9 2.2 7.9 6 12l20.6-22.2c-3.6-3.2-7.4-5.1-11.3-5.5-4-.3-7.7 1.3-11.1 5zM827.7 539.9c4.1-7.2 10-11.4 17.8-12.8 7.8-1.4 16.9.9 27.4 6.9 10.5 5.9 17.1 12.7 20 20.2 2.8 7.5 2.2 14.9-1.8 22.1-2.6 4.5-5.5 7.7-8.7 9.6-3.2 1.9-6.4 3-9.5 3.4l-.5.9c1.6.6 3.2 1.3 5 2 1.8.8 3.4 1.6 4.9 2.4l24.9 14.1-8.1 14.3-88.4-50.1 6.5-11.5 9.3 2.6.4-.7c-1.6-3.2-2.5-6.7-2.7-10.5-.4-4 .8-8.2 3.5-12.9zm9.2 10.6c-2.9 5.1-3.4 9.5-1.5 13.3 1.8 3.8 5.8 7.4 11.9 11l1.8 1c6.6 3.7 12.2 5.6 16.8 5.6 4.6 0 8.5-2.7 11.6-8.2 2.5-4.4 2.6-8.8.1-13-2.4-4.2-6.8-8.1-13.2-11.7-6.3-3.6-11.8-5.3-16.5-5.1-4.7.1-8.4 2.5-11 7.1zM881.3 439.1l-6.7 22.1L930 478l-4.7 15.6-55.4-16.8-6.7 22-12.1-3.7 18.1-59.7 12.1 3.7zM875.2 379c.7-9.1 3.3-15.8 7.6-20.2 4.4-4.4 10.7-6.3 19-5.6L949 357l-.9 11.5-10 2.5v.5c3.6 3.3 6.1 6.7 7.6 10.3 1.5 3.5 2 8.2 1.6 13.9-.5 6.3-2.7 11.4-6.6 15.3-3.9 3.9-9.5 5.5-17 4.9-7.3-.6-12.5-3.7-15.7-9.3-3.2-5.6-4.6-13.8-4.2-24.7l.6-12.2-3.5-.3c-4.5-.4-7.8.5-9.8 2.5-2.1 2-3.3 5-3.6 8.8-.3 3.5-.1 7 .7 10.3s1.7 6.6 2.9 10l-11.8 4.3c-1.5-3.6-2.7-7.7-3.5-12.2-.8-4.6-1-9.3-.6-14.1zm39.3-8.5-.4 8.6c-.3 7.2.5 12.3 2.5 15.2 2 2.9 4.8 4.6 8.5 4.9 3.4.3 5.8-.5 7.4-2.3 1.6-1.8 2.5-4.3 2.8-7.5.4-4.8-.7-8.9-3.1-12.4-2.5-3.5-6.4-5.5-11.7-5.9l-6-.6z"/></svg>