<svg xmlns="http://www.w3.org/2000/svg" xml:space="preserve" width="937.3" height="800" fill="#fff"><path d="M571.596 8.247v65.9c0 5 3.3 8.2 8.2 8.2h74.1zm-241.3 286.5-1.6-4.1 1.6-.9v-35.4l-14 5.7-6.6-14.8 20.6-8.2v-35.4l-33 12.3-6.6-14.8 39.6-16.4v-35.4l-51.9 21.4-6.6-14.8 58.5-23.9v-35.4l-70.8 29.6-6.6-14.8 77.4-32.1v-37l-105.4 43.7c-8.2 3.3-12.3 13.2-9.1 21.4l114.5 275zm13.2 116.9 11.6 28c3.3 8.2 13.2 12.3 21.4 9.1l89.8-37.1z" style="fill:#2b0000"/><path d="M478.596 387.047c0-14.8 2.5-28 7.5-41.2h-106.3v-16.4h112.8c6.6-12.3 15.7-23.9 25.5-33h-138.4v-16.4h160.6c18.2-10.7 38.7-16.4 61.7-16.4 20.6 0 40.3 5 57.6 14v-178.9h-79.9c-14 0-27.1-10.7-27.1-24.7v-74h-186.8c-9.1 0-18.9 7.5-18.9 16.4v362.3c0 9.1 9.8 16.4 18.9 16.4h112.8zm-98.9-354.2h156.5v16.4h-156.5zm0 49.5h156.5v16.4h-156.5zm0 49.4h247v16.4h-247zm0 49.4h247v16.4h-247zm0 49.4h247v16.4h-247zM4.8 262.9l117.3 6.1-4.8 91L0 354l1.1-21 99.6 5.2 2.6-49L3.7 284ZM67 470.4c-14.4 3.3-26.4 2.2-36-3.5-9.6-5.7-15.9-14.9-18.8-27.7-1.8-7.9-1.7-15.4.4-22.4 2.1-7 6.1-13.1 12-18.2s13.7-8.7 23.3-11c14.4-3.3 26.4-2.2 35.8 3.4 9.5 5.6 15.7 14.9 18.7 27.7 1.9 8 1.8 15.5-.3 22.5-2 7-6 13-11.8 18.1-6 5.3-13.7 8.9-23.3 11.1zm-14.4-62c-9.2 2.1-15.9 5.4-20.2 9.8-4.3 4.4-5.6 10.3-3.9 17.5 1.7 7.2 5.4 11.8 11.2 14 5.8 2.1 13.3 2.2 22.5 0 9.2-2.1 15.9-5.4 20-9.9s5.4-10.3 3.7-17.6c-1.7-7.3-5.4-11.9-11-14-5.7-2-13.1-1.9-22.3.2zm73.3 85.6-37.2 20.4c-1.7.9-4.2 2.2-7.3 3.6-3.1 1.5-6.1 2.9-9 4.2-2.8 1.3-4.9 2.2-6.1 2.8l79.8 6 12 21.9-78.2 42.9-9.6-17.5 36.8-20.2c2.2-1.2 4.8-2.5 7.8-4 3-1.4 5.8-2.8 8.5-4 2.7-1.2 4.8-2.2 6.3-2.9l-79.6-5.9-12-21.9 78.2-42.9zm5.2 164.5c-8.7-9.3-12.8-19.2-12.5-29.6.3-10.4 6.3-21 17.9-31.8 8-7.5 15.8-12.2 23.3-14.2s14.7-1.7 21.5.8c6.8 2.5 13 6.9 18.7 13 3.7 4 6.7 8 8.9 12s3.8 7.6 4.8 10.9l-16.1 6.6c-1.4-3.5-3-6.8-4.6-9.9-1.6-3.1-3.5-5.8-5.6-8.1-9.9-10.6-22-9.2-36.4 4.2-7 6.5-11 12.7-12 18.7s.8 11.5 5.5 16.6c3.4 3.6 6.8 6.4 10.3 8.5 3.5 2 7.2 3.6 11.1 4.7l-13.1 12.2c-3.8-1.1-7.5-2.7-10.8-5-3.4-2.2-7-5.4-10.9-9.6zm143.5-.2 18.9 12.9-54.1 15 6.6 60.6-19.6-13.3-5.9-58.7-25.4 37.4-17.1-11.7 50.1-73.8 17.2 11.7-24.3 35.8zm65.3 28.7c10.8 4 18.2 9.3 22 16.1 3.9 6.8 4 15.1.4 25l-20.6 56.2-13.8-5 .4-13-.6-.2c-5.3 3.2-10.3 5.1-15.1 5.8-4.8.6-10.6-.3-17.5-2.8-7.5-2.8-13-7.2-16.4-13.2-3.4-6-3.5-13.5-.2-22.3 3.2-8.7 8.7-14 16.6-16 7.9-2 18.4-.9 31.5 3.3l14.7 4.9 1.5-4.2c2-5.4 2.1-9.6.3-12.9-1.7-3.2-4.9-5.7-9.6-7.4-4.2-1.5-8.5-2.4-12.8-2.7-4.3-.2-8.7-.2-13.1.2l-1.2-15.9c4.9-.7 10.3-.7 16.1-.1 5.8.7 11.6 2.1 17.4 4.2zm-3 50.7-10.3-3.4c-8.7-2.8-15.1-3.5-19.4-2.1-4.3 1.4-7.2 4.3-8.8 8.8-1.5 4-1.4 7.3.3 9.8 1.7 2.5 4.4 4.5 8.3 5.9 5.7 2.1 11 2.2 16.2.4 5.1-1.8 8.8-5.9 11.2-12.3zm76.5-29.7-3.5 42.3c-.2 2-.5 4.7-1 8.1-.5 3.4-1 6.7-1.5 9.8-.5 3.1-.8 5.3-1 6.6l49.1-63.3 24.9 2.1-7.4 88.9-19.8-1.7 3.5-41.8c.2-2.5.5-5.4 1-8.7.4-3.3.9-6.4 1.4-9.3.5-2.9.8-5.2 1.1-6.8L411 797.3l-24.9-2.1 7.4-88.9zm63.5-32.7c-1 5.5-2.9 10.2-5.8 14.1-2.9 3.9-6.9 6.7-12.2 8.5-5.3 1.8-12.2 2.3-20.7 1.6-8.7-.7-15.5-2.4-20.2-4.9-4.7-2.5-8-6-9.9-10.2-1.8-4.3-2.7-9.3-2.7-15l18.7 1.6c-.1 6 1.1 10.2 3.5 12.3 2.4 2.2 6.4 3.5 12.1 4 4.8.4 8.8-.3 11.9-2.2 3.1-1.9 5.2-5.6 6.2-11.3zm177.5 26.1c4 11.5 5.5 22.2 4.7 32.1-.8 9.9-4.3 18.5-10.5 26-6.1 7.5-15.1 13.2-26.8 17.2-11.9 4.1-22.6 5.1-31.9 3-9.3-2.1-17.4-6.8-24.1-14.1-6.8-7.3-12.1-16.7-16.1-28.2-3.9-11.4-5.5-22-4.6-31.9.8-9.9 4.3-18.5 10.4-25.9 6.1-7.4 15.1-13.1 27-17.2 11.7-4 22.3-5 31.6-3 9.4 2.1 17.4 6.7 24.1 14 6.9 7.1 12.2 16.5 16.2 28zm-83.6 28.8c4.3 12.6 10.2 21.5 17.7 27 7.5 5.4 16.6 6.3 27.4 2.6 11.1-3.8 17.8-10.2 20.3-19 2.4-8.8 1.4-19.5-2.9-32.1-4.3-12.5-10.2-21.6-17.5-27-7.3-5.5-16.5-6.3-27.5-2.5-10.9 3.8-17.6 10.1-20.2 19-2.5 8.7-1.6 19.4 2.7 32zm115.5-132.4 21.5 27.7c12.4-8 24.3-11.3 35.6-9.9 11.3 1.4 21 7.1 28.9 17.4 7.9 10.1 11.2 20.8 9.9 32.1-1.3 11.3-7.5 22-18.6 32.4l23.6 30.4-15.5 12-23.6-30.4c-12.3 7.9-24.2 11.2-35.7 9.8-11.5-1.4-21.2-7.1-29-17.3-8-10.3-11.4-21.1-10.1-32.2 1.3-11.2 7.7-22 19.3-32.4l-21.5-27.7zm16.1 52.1c-6 5.9-9.1 12.2-9.3 19-.2 6.8 2.2 13.4 7.2 19.9 5.1 6.6 11 10.6 17.5 12.1 6.6 1.5 13.5 0 20.7-4.5zm15.4-11.6 35.9 46.3c6-5.9 9-12.2 9.2-18.8.1-6.6-2.4-13.2-7.5-19.8-5-6.5-10.8-10.5-17.3-11.9-6.5-1.4-13.3 0-20.3 4.2zm56.6-85c7-9.7 15.5-15.2 25.4-16.7 9.9-1.4 19.9 1.6 30.2 9.1l8.5 6.2-34.7 47.6c6.7 4.6 13.1 6.5 19.2 5.6 6.1-.8 11.4-4.3 15.8-10.4 3.4-4.6 5.9-9.1 7.7-13.5 1.8-4.4 3.2-9.2 4.3-14.4l13.4 9.8c-.9 4.8-2.3 9.4-4.3 13.8s-4.9 9.3-8.8 14.6c-5.2 7.1-11.1 12.4-17.7 15.8-6.6 3.4-13.8 4.7-21.5 3.8-7.7-.9-15.6-4.4-23.9-10.4-12.3-9-19.5-18.9-21.6-29.6-1.9-10.8.7-21.2 8-31.3zm12.3 9c-3.3 4.5-4.5 9.2-3.7 14.1.9 4.9 4 9.6 9.3 14.2l22.6-31c-5-3.5-10.1-5.2-15.1-5.2-4.9.2-9.3 2.8-13.1 7.9zm35.6-98.6c3.8-9.7 10.5-16.1 20.1-19.1 9.5-3.1 21.4-1.8 35.6 3.8 14.2 5.6 23.7 12.9 28.6 21.9 4.9 9 5.4 18.3 1.6 28-2.4 6.1-5.5 10.6-9.2 13.5-3.7 2.9-7.5 4.9-11.4 5.9l-.5 1.2c2.1.5 4.3 1 6.6 1.6 2.3.6 4.5 1.4 6.6 2.2L934 536l-7.6 19.3-119.7-47.4 6.2-15.6 12.1 1.6.4-.9c-2.5-3.7-4.3-8-5.2-12.7-1.2-4.8-.4-10.3 2.1-16.6zm13.4 11.6c-2.7 6.8-2.6 12.5.4 16.9 3 4.4 8.6 8.3 16.8 11.7l2.4 1c8.9 3.5 16.2 4.9 22 4 5.8-.8 10.2-4.9 13.1-12.3 2.4-6 1.7-11.5-2.1-16.3-3.8-4.9-10-9-18.5-12.4-8.5-3.4-15.8-4.6-21.6-3.5-5.9 1.1-10 4.7-12.5 10.9zm28.9-125.6-4.1 29 72.5 10.2-2.9 20.4-72.4-10.3-4.1 28.8-15.8-2.2 11-78.2zm-20.8-50.9c-1-11.5.7-20.4 5.2-26.8 4.5-6.4 12-10.1 22.5-11l59.7-5.3 1.3 14.6-11.9 5.2.1.7c5.2 3.4 9 7.1 11.7 11.2 2.6 4.1 4.3 9.8 4.9 17.1.7 8-.9 14.8-5 20.4-4 5.6-10.7 8.9-20.1 9.7-9.2.8-16.4-1.9-21.6-8.2-5.2-6.3-8.7-16.3-10.4-29.9l-1.9-15.4-4.4.4c-5.7.5-9.6 2.2-11.8 5.2-2.2 2.9-3 6.9-2.6 11.8.4 4.5 1.4 8.7 3 12.7s3.5 7.9 5.8 11.8l-13.8 7.8c-2.7-4.2-5-9-6.9-14.5-2-5.6-3.2-11.4-3.8-17.5zm47.2-18.9 1.3 10.8c1.1 9 3.3 15.2 6.4 18.4 3.1 3.2 7 4.7 11.7 4.2 4.3-.4 7.2-1.9 8.8-4.5 1.6-2.6 2.2-6 1.8-10-.5-6-2.7-10.9-6.5-14.8-3.8-3.8-9.1-5.5-15.9-4.9z" style="fill:#2b0000"/><path d="M599.615 278.01c-59.3 0-107.1 47.8-107.1 107.1s47.8 107.1 107.1 107.1 107-47.9 107-107.1c0-59.2-47.8-107.1-107-107.1zm-17.3 166.3-58.5-58.5 11.6-11.6 46.9 46.9 81.5-81.5 11.6 11.6z" style="fill:#2b0000"/></svg>