<?xml version="1.0" encoding="UTF-8" standalone="no"?>
<!-- Generator: Adobe Illustrator 27.5.0, SVG Export Plug-In . SVG Version: 6.00 Build 0)  -->

<svg
   version="1.1"
   id="svg106"
   x="0px"
   y="0px"
   viewBox="0 0 950.00001 950"
   xml:space="preserve"
   sodipodi:docname="offernew-dark.svg"
   width="950"
   height="950"
   inkscape:version="1.1.2 (0a00cf5339, 2022-02-04)"
   xmlns:inkscape="http://www.inkscape.org/namespaces/inkscape"
   xmlns:sodipodi="http://sodipodi.sourceforge.net/DTD/sodipodi-0.dtd"
   xmlns="http://www.w3.org/2000/svg"
   xmlns:svg="http://www.w3.org/2000/svg"
   xmlns:ns="&amp;ns_sfw;"><defs
   id="defs43" /><sodipodi:namedview
   id="namedview41"
   pagecolor="#ffffff"
   bordercolor="#666666"
   borderopacity="1.0"
   inkscape:pageshadow="2"
   inkscape:pageopacity="0.0"
   inkscape:pagecheckerboard="0"
   showgrid="false"
   height="800px"
   inkscape:zoom="0.41300908"
   inkscape:cx="307.49929"
   inkscape:cy="309.92055"
   inkscape:window-width="1853"
   inkscape:window-height="1043"
   inkscape:window-x="1987"
   inkscape:window-y="0"
   inkscape:window-maximized="1"
   inkscape:current-layer="g38" />
<metadata
   id="metadata2">
	<ns:sfw>
		<ns:slices />
		<ns:sliceSourceBounds
   bottomLeftOrigin="true"
   height="722.5"
   width="937.3"
   x="-1489.6"
   y="9.5" />
	</ns:sfw>
</metadata>
<g
   id="g38">
	<g
   id="g104_00000152973289229197302480000014942408881332916374_"
   transform="matrix(1.0433646,0,0,1.0654227,-99.389407,111.33999)">
		<path
   id="path52-3_00000020361947683279206400000011214097546587178910_"
   d="m 643,25 v 65.9 c 0,5 3.3,8.2 8.2,8.2 h 74.1 z" />
		<path
   id="path54-6_00000133493627813125213310000017546793776557919129_"
   d="m 401.7,311.5 -1.6,-4.1 1.6,-0.9 v -35.4 l -14,5.7 -6.6,-14.8 20.6,-8.2 v -35.4 l -33,12.3 -6.6,-14.8 39.6,-16.4 v -35.4 l -51.9,21.4 -6.6,-14.8 58.5,-23.9 v -35.4 l -70.8,29.6 -6.6,-14.8 77.4,-32.1 v -37 l -105.4,43.7 c -8.2,3.3 -12.3,13.2 -9.1,21.4 l 114.5,275 z" />
		<path
   id="path56-7_00000045597067171577892130000005838545068071754626_"
   d="m 414.9,428.4 11.6,28 c 3.3,8.2 13.2,12.3 21.4,9.1 l 89.8,-37.1 z" />
		<path
   id="path58-5_00000044153720013698782990000009600461090050687165_"
   d="m 550,403.8 c 0,-14.8 2.5,-28 7.5,-41.2 H 451.2 V 346.2 H 564 c 6.6,-12.3 15.7,-23.9 25.5,-33 H 451.1 v -16.4 h 160.6 c 18.2,-10.7 38.7,-16.4 61.7,-16.4 20.6,0 40.3,5 57.6,14 V 115.5 h -79.9 c -14,0 -27.1,-10.7 -27.1,-24.7 v -74 H 437.2 c -9.1,0 -18.9,7.5 -18.9,16.4 v 362.3 c 0,9.1 9.8,16.4 18.9,16.4 H 550 Z M 451.1,49.6 H 607.6 V 66 H 451.1 Z m 0,49.5 h 156.5 v 16.4 H 451.1 Z m 0,49.4 h 247 v 16.4 h -247 z m 0,49.4 h 247 v 16.4 h -247 z m 0,49.4 h 247 v 16.4 h -247 z" />
		<path
   id="path60-3_00000176726215155063301450000015401870115445752483_"
   d="m 673.5,296.7 c -59.3,0 -107.1,47.8 -107.1,107.1 0,59.3 47.8,107.1 107.1,107.1 59.3,0 107,-47.9 107,-107.1 0,-59.2 -47.8,-107.1 -107,-107.1 z m -17.3,166.3 -58.5,-58.5 11.6,-11.6 46.9,46.9 81.5,-81.5 11.6,11.6 z" />
	</g>
	<g
   id="g36"
   transform="matrix(1.0040136,0,0,1.054899,5.9138792,184.70643)">
		<path
   d="m 4.8,182.9 117.3,6.1 -4.8,91 -117.3,-6 1.1,-21 99.6,5.2 2.6,-49 L 3.7,204 Z"
   id="path10" />
		<path
   d="m 67,390.4 c -14.4,3.3 -26.4,2.2 -36,-3.5 -9.6,-5.7 -15.9,-14.9 -18.8,-27.7 -1.8,-7.9 -1.7,-15.4 0.4,-22.4 2.1,-7 6.1,-13.1 12,-18.2 5.9,-5.1 13.7,-8.7 23.3,-11 14.4,-3.3 26.4,-2.2 35.8,3.4 9.5,5.6 15.7,14.9 18.7,27.7 1.9,8 1.8,15.5 -0.3,22.5 -2,7 -6,13 -11.8,18.1 -6,5.3 -13.7,8.9 -23.3,11.1 z m -14.4,-62 c -9.2,2.1 -15.9,5.4 -20.2,9.8 -4.3,4.4 -5.6,10.3 -3.9,17.5 1.7,7.2 5.4,11.8 11.2,14 5.8,2.1 13.3,2.2 22.5,0 9.2,-2.1 15.9,-5.4 20,-9.9 4.1,-4.5 5.4,-10.3 3.7,-17.6 -1.7,-7.3 -5.4,-11.9 -11,-14 -5.7,-2 -13.1,-1.9 -22.3,0.2 z"
   id="path12" />
		<path
   d="m 125.9,414 -37.2,20.4 c -1.7,0.9 -4.2,2.2 -7.3,3.6 -3.1,1.5 -6.1,2.9 -9,4.2 -2.8,1.3 -4.9,2.2 -6.1,2.8 l 79.8,6 12,21.9 -78.2,42.9 -9.6,-17.5 36.8,-20.2 c 2.2,-1.2 4.8,-2.5 7.8,-4 3,-1.4 5.8,-2.8 8.5,-4 2.7,-1.2 4.8,-2.2 6.3,-2.9 l -79.6,-5.9 -12,-21.9 78.2,-42.9 z"
   id="path14" />
		<path
   d="m 131.1,578.5 c -8.7,-9.3 -12.8,-19.2 -12.5,-29.6 0.3,-10.4 6.3,-21 17.9,-31.8 8,-7.5 15.8,-12.2 23.3,-14.2 7.5,-2 14.7,-1.7 21.5,0.8 6.8,2.5 13,6.9 18.7,13 3.7,4 6.7,8 8.9,12 2.2,4 3.8,7.6 4.8,10.9 l -16.1,6.6 c -1.4,-3.5 -3,-6.8 -4.6,-9.9 -1.6,-3.1 -3.5,-5.8 -5.6,-8.1 -9.9,-10.6 -22,-9.2 -36.4,4.2 -7,6.5 -11,12.7 -12,18.7 -1,6 0.8,11.5 5.5,16.6 3.4,3.6 6.8,6.4 10.3,8.5 3.5,2 7.2,3.6 11.1,4.7 l -13.1,12.2 c -3.8,-1.1 -7.5,-2.7 -10.8,-5 -3.4,-2.2 -7,-5.4 -10.9,-9.6 z"
   id="path16" />
		<path
   d="m 274.6,578.3 18.9,12.9 -54.1,15 6.6,60.6 -19.6,-13.3 -5.9,-58.7 -25.4,37.4 -17.1,-11.7 50.1,-73.8 17.2,11.7 -24.3,35.8 z"
   id="path18" />
		<path
   d="m 339.9,607 c 10.8,4 18.2,9.3 22,16.1 3.9,6.8 4,15.1 0.4,25 l -20.6,56.2 -13.8,-5 0.4,-13 -0.6,-0.2 c -5.3,3.2 -10.3,5.1 -15.1,5.8 -4.8,0.6 -10.6,-0.3 -17.5,-2.8 -7.5,-2.8 -13,-7.2 -16.4,-13.2 -3.4,-6 -3.5,-13.5 -0.2,-22.3 3.2,-8.7 8.7,-14 16.6,-16 7.9,-2 18.4,-0.9 31.5,3.3 l 14.7,4.9 1.5,-4.2 c 2,-5.4 2.1,-9.6 0.3,-12.9 -1.7,-3.2 -4.9,-5.7 -9.6,-7.4 -4.2,-1.5 -8.5,-2.4 -12.8,-2.7 -4.3,-0.2 -8.7,-0.2 -13.1,0.2 l -1.2,-15.9 c 4.9,-0.7 10.3,-0.7 16.1,-0.1 5.8,0.7 11.6,2.1 17.4,4.2 z m -3,50.7 -10.3,-3.4 c -8.7,-2.8 -15.1,-3.5 -19.4,-2.1 -4.3,1.4 -7.2,4.3 -8.8,8.8 -1.5,4 -1.4,7.3 0.3,9.8 1.7,2.5 4.4,4.5 8.3,5.9 5.7,2.1 11,2.2 16.2,0.4 5.1,-1.8 8.8,-5.9 11.2,-12.3 z"
   id="path20" />
		<path
   d="m 413.4,628 -3.5,42.3 c -0.2,2 -0.5,4.7 -1,8.1 -0.5,3.4 -1,6.7 -1.5,9.8 -0.5,3.1 -0.8,5.3 -1,6.6 l 49.1,-63.3 24.9,2.1 -7.4,88.9 -19.8,-1.7 3.5,-41.8 c 0.2,-2.5 0.5,-5.4 1,-8.7 0.4,-3.3 0.9,-6.4 1.4,-9.3 0.5,-2.9 0.8,-5.2 1.1,-6.8 l -49.2,63.1 -24.9,-2.1 7.4,-88.9 z m 63.5,-32.7 c -1,5.5 -2.9,10.2 -5.8,14.1 -2.9,3.9 -6.9,6.7 -12.2,8.5 -5.3,1.8 -12.2,2.3 -20.7,1.6 -8.7,-0.7 -15.5,-2.4 -20.2,-4.9 -4.7,-2.5 -8,-6 -9.9,-10.2 -1.8,-4.3 -2.7,-9.3 -2.7,-15 l 18.7,1.6 c -0.1,6 1.1,10.2 3.5,12.3 2.4,2.2 6.4,3.5 12.1,4 4.8,0.4 8.8,-0.3 11.9,-2.2 3.1,-1.9 5.2,-5.6 6.2,-11.3 z"
   id="path22" />
		<path
   d="m 654.4,621.4 c 4,11.5 5.5,22.2 4.7,32.1 -0.8,9.9 -4.3,18.5 -10.5,26 -6.1,7.5 -15.1,13.2 -26.8,17.2 -11.9,4.1 -22.6,5.1 -31.9,3 -9.3,-2.1 -17.4,-6.8 -24.1,-14.1 -6.8,-7.3 -12.1,-16.7 -16.1,-28.2 -3.9,-11.4 -5.5,-22 -4.6,-31.9 0.8,-9.9 4.3,-18.5 10.4,-25.9 6.1,-7.4 15.1,-13.1 27,-17.2 11.7,-4 22.3,-5 31.6,-3 9.4,2.1 17.4,6.7 24.1,14 6.9,7.1 12.2,16.5 16.2,28 z m -83.6,28.8 c 4.3,12.6 10.2,21.5 17.7,27 7.5,5.4 16.6,6.3 27.4,2.6 11.1,-3.8 17.8,-10.2 20.3,-19 2.4,-8.8 1.4,-19.5 -2.9,-32.1 -4.3,-12.5 -10.2,-21.6 -17.5,-27 -7.3,-5.5 -16.5,-6.3 -27.5,-2.5 -10.9,3.8 -17.6,10.1 -20.2,19 -2.5,8.7 -1.6,19.4 2.7,32 z"
   id="path24" />
		<path
   d="m 686.3,517.8 21.5,27.7 c 12.4,-8 24.3,-11.3 35.6,-9.9 11.3,1.4 21,7.1 28.9,17.4 7.9,10.1 11.2,20.8 9.9,32.1 -1.3,11.3 -7.5,22 -18.6,32.4 l 23.6,30.4 -15.5,12 -23.6,-30.4 c -12.3,7.9 -24.2,11.2 -35.7,9.8 -11.5,-1.4 -21.2,-7.1 -29,-17.3 -8,-10.3 -11.4,-21.1 -10.1,-32.2 1.3,-11.2 7.7,-22 19.3,-32.4 l -21.5,-27.7 z m 16.1,52.1 c -6,5.9 -9.1,12.2 -9.3,19 -0.2,6.8 2.2,13.4 7.2,19.9 5.1,6.6 11,10.6 17.5,12.1 6.6,1.5 13.5,0 20.7,-4.5 z m 15.4,-11.6 35.9,46.3 c 6,-5.9 9,-12.2 9.2,-18.8 0.1,-6.6 -2.4,-13.2 -7.5,-19.8 -5,-6.5 -10.8,-10.5 -17.3,-11.9 -6.5,-1.4 -13.3,0 -20.3,4.2 z"
   id="path26" />
		<path
   d="m 774.4,473.3 c 7,-9.7 15.5,-15.2 25.4,-16.7 9.9,-1.4 19.9,1.6 30.2,9.1 l 8.5,6.2 -34.7,47.6 c 6.7,4.6 13.1,6.5 19.2,5.6 6.1,-0.8 11.4,-4.3 15.8,-10.4 3.4,-4.6 5.9,-9.1 7.7,-13.5 1.8,-4.4 3.2,-9.2 4.3,-14.4 l 13.4,9.8 c -0.9,4.8 -2.3,9.4 -4.3,13.8 -2,4.4 -4.9,9.3 -8.8,14.6 -5.2,7.1 -11.1,12.4 -17.7,15.8 -6.6,3.4 -13.8,4.7 -21.5,3.8 -7.7,-0.9 -15.6,-4.4 -23.9,-10.4 -12.3,-9 -19.5,-18.9 -21.6,-29.6 -1.9,-10.8 0.7,-21.2 8,-31.3 z m 12.3,9 c -3.3,4.5 -4.5,9.2 -3.7,14.1 0.9,4.9 4,9.6 9.3,14.2 l 22.6,-31 c -5,-3.5 -10.1,-5.2 -15.1,-5.2 -4.9,0.2 -9.3,2.8 -13.1,7.9 z"
   id="path28" />
		<path
   d="m 822.3,383.7 c 3.8,-9.7 10.5,-16.1 20.1,-19.1 9.5,-3.1 21.4,-1.8 35.6,3.8 14.2,5.6 23.7,12.9 28.6,21.9 4.9,9 5.4,18.3 1.6,28 -2.4,6.1 -5.5,10.6 -9.2,13.5 -3.7,2.9 -7.5,4.9 -11.4,5.9 l -0.5,1.2 c 2.1,0.5 4.3,1 6.6,1.6 2.3,0.6 4.5,1.4 6.6,2.2 l 33.7,13.3 -7.6,19.3 -119.7,-47.4 6.2,-15.6 12.1,1.6 0.4,-0.9 c -2.5,-3.7 -4.3,-8 -5.2,-12.7 -1.2,-4.8 -0.4,-10.3 2.1,-16.6 z m 13.4,11.6 c -2.7,6.8 -2.6,12.5 0.4,16.9 3,4.4 8.6,8.3 16.8,11.7 l 2.4,1 c 8.9,3.5 16.2,4.9 22,4 5.8,-0.8 10.2,-4.9 13.1,-12.3 2.4,-6 1.7,-11.5 -2.1,-16.3 -3.8,-4.9 -10,-9 -18.5,-12.4 -8.5,-3.4 -15.8,-4.6 -21.6,-3.5 -5.9,1.1 -10,4.7 -12.5,10.9 z"
   id="path30" />
		<path
   d="m 864.6,269.7 -4.1,29 72.5,10.2 -2.9,20.4 -72.4,-10.3 -4.1,28.8 -15.8,-2.2 11,-78.2 z"
   id="path32" />
		<path
   d="m 843.8,218.8 c -1,-11.5 0.7,-20.4 5.2,-26.8 4.5,-6.4 12,-10.1 22.5,-11 l 59.7,-5.3 1.3,14.6 -11.9,5.2 0.1,0.7 c 5.2,3.4 9,7.1 11.7,11.2 2.6,4.1 4.3,9.8 4.9,17.1 0.7,8 -0.9,14.8 -5,20.4 -4,5.6 -10.7,8.9 -20.1,9.7 -9.2,0.8 -16.4,-1.9 -21.6,-8.2 -5.2,-6.3 -8.7,-16.3 -10.4,-29.9 l -1.9,-15.4 -4.4,0.4 c -5.7,0.5 -9.6,2.2 -11.8,5.2 -2.2,2.9 -3,6.9 -2.6,11.8 0.4,4.5 1.4,8.7 3,12.7 1.6,4 3.5,7.9 5.8,11.8 l -13.8,7.8 c -2.7,-4.2 -5,-9 -6.9,-14.5 -2,-5.6 -3.2,-11.4 -3.8,-17.5 z m 47.2,-18.9 1.3,10.8 c 1.1,9 3.3,15.2 6.4,18.4 3.1,3.2 7,4.7 11.7,4.2 4.3,-0.4 7.2,-1.9 8.8,-4.5 1.6,-2.6 2.2,-6 1.8,-10 -0.5,-6 -2.7,-10.9 -6.5,-14.8 -3.8,-3.8 -9.1,-5.5 -15.9,-4.9 z"
   id="path34" />
	</g>
</g>
</svg>
