<?xml version="1.0" encoding="iso-8859-1"?>
<!-- Generator: Adobe Illustrator 19.0.0, SVG Export Plug-In . SVG Version: 6.00 Build 0)  -->
<svg version="1.1" id="Capa_1" xmlns="http://www.w3.org/2000/svg" xmlns:xlink="http://www.w3.org/1999/xlink" x="0px" y="0px"
	 viewBox="0 0 464 464" style="enable-background:new 0 0 464 464;" xml:space="preserve">
<g>
	<path style="fill:#689CB0;" d="M256,432c0,17.673,14.327,32,32,32h144c17.673,0,32-14.327,32-32v-16H256V432z"/>
	<path style="fill:#689CB0;" d="M464,176c0-17.673-14.327-32-32-32H288c-17.673,0-32,14.327-32,32v16h208V176z"/>
</g>
<path style="fill:#F7EAD0;" d="M256,192h208v224H256V192z"/>
<g>
	<path style="fill:#EDDFC2;" d="M256,192h72l0,0v72c0,17.673-14.327,32-32,32h-40l0,0V192L256,192z"/>
	<path style="fill:#EDDFC2;" d="M360,192h104v224H360V192z"/>
</g>
<circle style="fill:#94D8E3;" cx="360" cy="304" r="64"/>
<g>
	<path style="fill:#84CDD9;" d="M296.56,295.944c17.432-0.305,31.412-14.509,31.44-31.944v-15.368
		C310.707,258.627,299.076,276.129,296.56,295.944z"/>
	<path style="fill:#84CDD9;" d="M360,240c35.346,0,64,28.654,64,64s-28.654,64-64,64V240z"/>
</g>
<path style="fill:#FF7E6B;" d="M288,0H32C14.327,0,0,14.327,0,32v224c0,17.673,14.327,32,32,32h72l120,72l-32-72h96
	c3.618-0.036,7.203-0.691,10.6-1.936c1.453-0.524,2.867-1.149,4.232-1.872l0.528-0.28c1.313-0.715,2.577-1.517,3.784-2.4
	l0.232-0.192c2.174-1.674,4.125-3.617,5.808-5.784c0.272-0.344,0.584-0.656,0.8-1.016c0.544-0.76,0.992-1.6,1.472-2.4
	s1-1.72,1.424-2.624c0.344-0.728,0.64-1.472,0.928-2.224c0.432-1.151,0.798-2.327,1.096-3.52c0.16-0.632,0.344-1.264,0.464-1.912
	c0.389-1.923,0.6-3.878,0.632-5.84V32C320,14.327,305.673,0,288,0L288,0z"/>
<path style="fill:#ED7361;" d="M0,256c0,17.673,14.327,32,32,32h72l120,72l-32-72h96c3.618-0.036,7.203-0.691,10.6-1.936
	c1.453-0.524,2.867-1.149,4.232-1.872l0.528-0.28c1.313-0.715,2.577-1.517,3.784-2.4l0.232-0.192
	c2.174-1.674,4.125-3.617,5.808-5.784c0.272-0.344,0.584-0.656,0.8-1.016c0.544-0.76,0.992-1.6,1.472-2.4s1-1.72,1.424-2.624
	c0.344-0.728,0.64-1.472,0.928-2.224c0.432-1.151,0.798-2.327,1.096-3.52c0.16-0.632,0.344-1.264,0.464-1.912
	c0.389-1.923,0.6-3.878,0.632-5.84V56L0,240V256z"/>
<g>
	<path style="fill:#F2CF77;" d="M176,48h-32c-39.764,0-72,32.235-72,72h176C248,80.235,215.764,48,176,48z"/>
	<path style="fill:#F2CF77;" d="M104,248h112c17.673,0,32-14.327,32-32H72C72,233.673,86.327,248,104,248z"/>
</g>
<g>
	<path style="fill:#5C8EA1;" d="M360,464h72c17.673,0,32-14.327,32-32v-16H360V464z"/>
	<path style="fill:#5C8EA1;" d="M432,144h-72v48h104v-16C464,158.327,449.673,144,432,144z"/>
	<path style="fill:#5C8EA1;" d="M320,144h8v48h-8V144z"/>
</g>
<path style="fill:#84CDD9;" d="M224,200c-8.392-0.094-16.317-3.874-21.672-10.336c-3.928-3.928-5.856-5.664-10.4-5.664
	s-6.4,1.736-10.328,5.656c-9.658,11.958-27.181,13.823-39.139,4.165c-1.532-1.237-2.928-2.633-4.165-4.165
	C134.4,185.736,132.448,184,128,184s-6.4,1.736-10.328,5.656c-9.654,11.956-27.172,13.822-39.128,4.168
	c-1.533-1.238-2.93-2.635-4.168-4.168C70.4,185.736,68.496,184,64,184v-16c8.389,0.094,16.311,3.878,21.656,10.344
	c3.912,3.92,5.84,5.656,10.328,5.656s6.4-1.736,10.328-5.656c9.654-11.956,27.172-13.822,39.128-4.168
	c1.533,1.238,2.93,2.635,4.168,4.168c3.912,3.92,5.84,5.656,10.328,5.656s6.4-1.736,10.336-5.656
	c9.674-11.962,27.213-13.818,39.176-4.144c1.523,1.232,2.912,2.621,4.144,4.144c3.928,3.928,5.864,5.664,10.4,5.664
	s6.4-1.736,10.4-5.664c5.339-6.448,13.237-10.229,21.608-10.344v16c-4.504,0-6.4,1.736-10.4,5.664
	C240.262,196.107,232.366,199.885,224,200z"/>
<path style="fill:#756969;" d="M64,144h192v16H64V144z"/>
<g>
	<path style="fill:#F7EAD0;" d="M120,80h16v16h-16V80z"/>
	<path style="fill:#F7EAD0;" d="M152,80h16v16h-16V80z"/>
	<path style="fill:#F7EAD0;" d="M184,80h16v16h-16V80z"/>
</g>
<path style="fill:#756969;" d="M352,331.312l-21.656-21.656l11.312-11.312L352,308.688l34.344-34.344l11.312,11.312L352,331.312z"/>
<g>
</g>
<g>
</g>
<g>
</g>
<g>
</g>
<g>
</g>
<g>
</g>
<g>
</g>
<g>
</g>
<g>
</g>
<g>
</g>
<g>
</g>
<g>
</g>
<g>
</g>
<g>
</g>
<g>
</g>
</svg>
