<svg xmlns="http://www.w3.org/2000/svg"  viewBox="0 0 32 32" width="96px" height="96px" fill-rule="evenodd" clip-rule="evenodd"><path fill="#ffd145" d="M13.576,8.885L13.705,9.368L14.223,11.3C14.294,11.566 14.136,11.841 13.869,11.912C13.603,11.984 13.328,11.825 13.257,11.559L12.739,9.627L12.61,9.144L3.917,11.473C3.65,11.545 3.492,11.819 3.563,12.086C3.849,13.152 3.215,14.249 2.149,14.535C1.882,14.606 1.724,14.881 1.795,15.147L4.125,23.841C4.196,24.107 4.47,24.266 4.737,24.194C5.803,23.909 6.901,24.542 7.187,25.608C7.258,25.875 7.532,26.034 7.799,25.962L16.498,23.631L16.364,23.156L15.845,21.218C15.774,20.951 15.932,20.677 16.199,20.605C16.465,20.534 16.74,20.692 16.811,20.959C16.811,20.959 17.328,22.888 17.328,22.888L17.464,23.372L28.083,20.527L27.954,20.544C27.954,20.544 28.467,20.03 28.433,19.901C28.433,19.899 28.432,19.897 28.432,19.896C28.378,19.683 28.357,19.463 28.374,19.244C28.398,18.938 28.493,18.64 28.649,18.376C28.799,18.123 29.005,17.904 29.249,17.739C29.433,17.614 29.638,17.523 29.853,17.465C30.119,17.392 30.276,17.119 30.205,16.853L27.875,8.159C27.804,7.893 27.53,7.734 27.263,7.806C26.197,8.091 25.099,7.458 24.813,6.392C24.742,6.125 24.468,5.966 24.201,6.038L13.576,8.885ZM7.716,21.692L11.716,14.763C11.854,14.524 11.772,14.218 11.533,14.08C11.294,13.942 10.988,14.024 10.85,14.263L6.85,21.192C6.712,21.431 6.794,21.737 7.033,21.875C7.272,22.013 7.578,21.931 7.716,21.692ZM11.134,17.821C10.334,18.036 9.859,18.859 10.073,19.659C10.288,20.458 11.111,20.934 11.911,20.719C12.71,20.505 13.185,19.682 12.971,18.882C12.757,18.082 11.934,17.607 11.134,17.821L11.134,17.821ZM19.097,19.829L25.858,18.017C26.125,17.946 26.283,17.671 26.212,17.405C26.14,17.138 25.866,16.98 25.599,17.051L18.838,18.863C18.571,18.935 18.413,19.209 18.484,19.475C18.556,19.742 18.83,19.9 19.097,19.829ZM11.393,18.787C11.659,18.716 11.934,18.874 12.005,19.141C12.077,19.407 11.918,19.682 11.652,19.753C11.385,19.825 11.111,19.666 11.039,19.4C10.968,19.133 11.126,18.859 11.393,18.787L11.393,18.787ZM14.81,17.354L15.328,19.286C15.399,19.553 15.673,19.711 15.94,19.64C16.206,19.568 16.365,19.294 16.293,19.027L15.776,17.095C15.704,16.829 15.43,16.67 15.163,16.742C14.897,16.813 14.739,17.088 14.81,17.354ZM6.655,15.236C5.856,15.45 5.38,16.273 5.595,17.073C5.809,17.872 6.632,18.348 7.432,18.133C8.231,17.919 8.707,17.096 8.492,16.296C8.278,15.497 7.455,15.021 6.655,15.236L6.655,15.236ZM18.579,17.897L25.34,16.085C25.607,16.014 25.765,15.74 25.694,15.473C25.623,15.207 25.348,15.048 25.082,15.12L18.32,16.931C18.054,17.003 17.895,17.277 17.967,17.544C18.038,17.81 18.312,17.969 18.579,17.897ZM6.914,16.202C7.181,16.13 7.455,16.289 7.527,16.555C7.598,16.822 7.44,17.096 7.173,17.168C6.906,17.239 6.632,17.081 6.561,16.814C6.489,16.547 6.648,16.273 6.914,16.202L6.914,16.202ZM18.061,15.965L24.823,14.154C25.089,14.082 25.248,13.808 25.176,13.541C25.105,13.275 24.83,13.116 24.564,13.188L17.802,14.999C17.536,15.071 17.377,15.345 17.449,15.612C17.52,15.878 17.795,16.037 18.061,15.965ZM13.775,13.49L14.292,15.422C14.364,15.689 14.638,15.847 14.905,15.776C15.171,15.704 15.33,15.43 15.258,15.163L14.741,13.232C14.669,12.965 14.395,12.807 14.128,12.878C13.862,12.95 13.703,13.224 13.775,13.49ZM17.285,13.068L21.149,12.032C21.415,11.961 21.573,11.686 21.502,11.42C21.431,11.153 21.156,10.995 20.89,11.066L17.026,12.102C16.759,12.173 16.601,12.447 16.672,12.714C16.744,12.981 17.018,13.139 17.285,13.068Z"/></svg>