<svg id="Capa_1" enable-background="new 0 0 512 512" height="512" viewBox="0 0 512 512" width="512" xmlns="http://www.w3.org/2000/svg"><g><g><path d="m512 256c0 141.387-114.613 256-256 256s-256-114.613-256-256 114.613-256 256-256 256 114.613 256 256zm0 0" fill="#b7e3f5"/><path d="m512 256c0 26.051-3.891 51.191-11.129 74.871-5.031 16.469-11.672 32.231-19.75 47.109-8.25 15.2-18 29.461-29.051 42.61-.582.691-1.16 1.379-1.75 2.058-46.941 54.704-116.59 89.352-194.32 89.352s-147.379-34.648-194.309-89.352c-.589-.687-1.179-1.378-1.75-2.07-11.062-13.137-20.812-27.398-29.05-42.598-3.289-6.031-6.332-12.21-9.121-18.531-14-31.629-21.77-66.629-21.77-103.449 0-46.219 12.25-89.57 33.68-127 44.121 77.07 127.16 129 222.32 129s178.211-51.93 222.32-129c21.43 37.43 33.68 80.781 33.68 127zm0 0" fill="#8dd2ef"/><path d="m481.262 377.699c-7.16 13.223-15.434 25.742-24.723 37.43-8.437 10.633-17.719 20.57-27.719 29.723-45.539 41.699-106.211 67.148-172.82 67.148s-127.281-25.449-172.82-67.148c-10-9.153-19.282-19.09-27.719-29.723-9.289-11.688-17.563-24.207-24.723-37.43zm0 0" fill="#75a9c0"/></g><g><g><path d="m208.553 503.725-36.128-49.62-58.927 14.587 59.543-165.436 92.033 42.564z" fill="#e36565"/></g><g><path d="m303.41 503.725-56.522-157.893 92.046-42.564 59.518 165.423-58.914-14.587z" fill="#da3f3e"/></g><path d="m436.59 256.672-32.996-39.543 8.791-50.751-48.335-17.756-17.755-48.347-50.752 8.804-39.543-36.329-39.543 36.329-50.752-8.804-17.756 48.347-48.347 17.756 8.804 50.751-32.996 39.543 32.996 39.544-8.804 50.751 48.347 17.756 17.756 48.334 50.752-8.791 39.543 32.996 39.543-32.996 50.752 8.791 17.755-48.334 48.335-17.756-8.791-50.751z" fill="#ebb82c"/><path d="m346.295 413.057 17.755-48.334 48.335-17.756-8.791-50.751 32.996-39.544-32.996-39.543 8.791-50.751-48.335-17.756-17.755-48.347-50.752 8.804-39.543-36.329v364.512l39.543-32.996z" fill="#e38d22"/><g><path d="m256 161.976h-12.626v50.505h12.626 12.626v-50.505z" fill="#c7d5f6"/><path d="m256 161.976h12.626v50.505h-12.626z" fill="#a3aade"/><path d="m256 187.228c-48.813 0-88.384 39.571-88.384 88.384v25.252h88.384 88.384v-25.252c0-48.813-39.572-88.384-88.384-88.384z" fill="#e7faff"/><path d="m344.384 275.612c0-48.813-39.571-88.384-88.384-88.384v113.636h88.384z" fill="#c7d5f6"/><path d="m256 288.238h-113.636v25.252h113.636 113.636v-25.252z" fill="#c7d5f6"/><path d="m256 288.238h113.636v25.253h-113.636z" fill="#a3aade"/></g></g></g></svg>